<mxfile host="drawio-plugin" agent="Mozilla/5.0 (Windows NT 10.0; Win64; x64) AppleWebKit/537.36 (KHTML, like Gecko) Chrome/122.0.0.0 Safari/537.36" modified="2025-04-27T22:25:36.864Z" version="22.1.22" etag="96Kr0wJdj-upxja6qOrO" type="embed">
  <diagram id="C5RBs43oDa-KdzZeNtuy" name="Page-1">
    <mxGraphModel dx="1723" dy="1921" grid="1" gridSize="10" guides="1" tooltips="1" connect="1" arrows="1" fold="1" page="1" pageScale="1" pageWidth="827" pageHeight="1169" math="0" shadow="0">
      <root>
        <mxCell id="WIyWlLk6GJQsqaUBKTNV-0" />
        <mxCell id="WIyWlLk6GJQsqaUBKTNV-1" parent="WIyWlLk6GJQsqaUBKTNV-0" />
        <mxCell id="tD3lOuw6bgQ2yHUj-0Qg-63" style="edgeStyle=orthogonalEdgeStyle;rounded=0;orthogonalLoop=1;jettySize=auto;html=1;exitX=1;exitY=0;exitDx=0;exitDy=0;entryX=0;entryY=0.5;entryDx=0;entryDy=0;" parent="WIyWlLk6GJQsqaUBKTNV-1" source="tD3lOuw6bgQ2yHUj-0Qg-0" target="tD3lOuw6bgQ2yHUj-0Qg-62" edge="1">
          <mxGeometry relative="1" as="geometry">
            <Array as="points">
              <mxPoint x="340" y="90" />
              <mxPoint x="340" y="30" />
              <mxPoint x="470" y="30" />
            </Array>
          </mxGeometry>
        </mxCell>
        <mxCell id="tD3lOuw6bgQ2yHUj-0Qg-64" value="1" style="edgeLabel;html=1;align=center;verticalAlign=middle;resizable=0;points=[];" parent="tD3lOuw6bgQ2yHUj-0Qg-63" vertex="1" connectable="0">
          <mxGeometry x="0.8813" y="-1" relative="1" as="geometry">
            <mxPoint as="offset" />
          </mxGeometry>
        </mxCell>
        <mxCell id="tD3lOuw6bgQ2yHUj-0Qg-0" value="&lt;div&gt;&amp;lt;&amp;lt;Entity&amp;gt;&amp;gt;&amp;nbsp;&lt;span style=&quot;background-color: transparent; color: light-dark(rgb(0, 0, 0), rgb(255, 255, 255));&quot;&gt;Sismografo&lt;/span&gt;&lt;/div&gt;" style="swimlane;fontStyle=1;align=center;verticalAlign=top;childLayout=stackLayout;horizontal=1;startSize=26;horizontalStack=0;resizeParent=1;resizeParentMax=0;resizeLast=0;collapsible=1;marginBottom=0;whiteSpace=wrap;html=1;" parent="WIyWlLk6GJQsqaUBKTNV-1" vertex="1">
          <mxGeometry x="110" y="90" width="190" height="160" as="geometry" />
        </mxCell>
        <mxCell id="tD3lOuw6bgQ2yHUj-0Qg-1" value="- fechaAdquisicion: date&lt;div&gt;- identificadorSismografo: int&lt;/div&gt;&lt;div&gt;- nroSerie: int&lt;/div&gt;" style="text;strokeColor=none;fillColor=none;align=left;verticalAlign=top;spacingLeft=4;spacingRight=4;overflow=hidden;rotatable=0;points=[[0,0.5],[1,0.5]];portConstraint=eastwest;whiteSpace=wrap;html=1;" parent="tD3lOuw6bgQ2yHUj-0Qg-0" vertex="1">
          <mxGeometry y="26" width="190" height="44" as="geometry" />
        </mxCell>
        <mxCell id="tD3lOuw6bgQ2yHUj-0Qg-2" value="" style="line;strokeWidth=1;fillColor=none;align=left;verticalAlign=middle;spacingTop=-1;spacingLeft=3;spacingRight=3;rotatable=0;labelPosition=right;points=[];portConstraint=eastwest;strokeColor=inherit;" parent="tD3lOuw6bgQ2yHUj-0Qg-0" vertex="1">
          <mxGeometry y="70" width="190" height="34" as="geometry" />
        </mxCell>
        <mxCell id="tD3lOuw6bgQ2yHUj-0Qg-3" value="+ getIdentificadorsismografo():&lt;div&gt;+ new():&lt;/div&gt;&lt;div&gt;+ serEstadoActual():&lt;/div&gt;" style="text;strokeColor=none;fillColor=none;align=left;verticalAlign=top;spacingLeft=4;spacingRight=4;overflow=hidden;rotatable=0;points=[[0,0.5],[1,0.5]];portConstraint=eastwest;whiteSpace=wrap;html=1;" parent="tD3lOuw6bgQ2yHUj-0Qg-0" vertex="1">
          <mxGeometry y="104" width="190" height="56" as="geometry" />
        </mxCell>
        <mxCell id="tD3lOuw6bgQ2yHUj-0Qg-4" value="SerieTemporal" style="swimlane;fontStyle=1;align=center;verticalAlign=top;childLayout=stackLayout;horizontal=1;startSize=26;horizontalStack=0;resizeParent=1;resizeParentMax=0;resizeLast=0;collapsible=1;marginBottom=0;whiteSpace=wrap;html=1;" parent="WIyWlLk6GJQsqaUBKTNV-1" vertex="1">
          <mxGeometry x="380" y="90" width="200" height="150" as="geometry" />
        </mxCell>
        <mxCell id="tD3lOuw6bgQ2yHUj-0Qg-5" value="-&amp;nbsp; condicionAlarma&lt;div&gt;- fechaHoraInicioRegistroMuestras&lt;/div&gt;&lt;div&gt;- fechaHoraRegistro&lt;/div&gt;&lt;div&gt;- frecuenciaMuestreo&lt;/div&gt;" style="text;strokeColor=none;fillColor=none;align=left;verticalAlign=top;spacingLeft=4;spacingRight=4;overflow=hidden;rotatable=0;points=[[0,0.5],[1,0.5]];portConstraint=eastwest;whiteSpace=wrap;html=1;" parent="tD3lOuw6bgQ2yHUj-0Qg-4" vertex="1">
          <mxGeometry y="26" width="200" height="74" as="geometry" />
        </mxCell>
        <mxCell id="tD3lOuw6bgQ2yHUj-0Qg-6" value="" style="line;strokeWidth=1;fillColor=none;align=left;verticalAlign=middle;spacingTop=-1;spacingLeft=3;spacingRight=3;rotatable=0;labelPosition=right;points=[];portConstraint=eastwest;strokeColor=inherit;" parent="tD3lOuw6bgQ2yHUj-0Qg-4" vertex="1">
          <mxGeometry y="100" width="200" height="8" as="geometry" />
        </mxCell>
        <mxCell id="tD3lOuw6bgQ2yHUj-0Qg-7" value="+ getDatos():&lt;div&gt;+ new():&lt;/div&gt;" style="text;strokeColor=none;fillColor=none;align=left;verticalAlign=top;spacingLeft=4;spacingRight=4;overflow=hidden;rotatable=0;points=[[0,0.5],[1,0.5]];portConstraint=eastwest;whiteSpace=wrap;html=1;" parent="tD3lOuw6bgQ2yHUj-0Qg-4" vertex="1">
          <mxGeometry y="108" width="200" height="42" as="geometry" />
        </mxCell>
        <mxCell id="tD3lOuw6bgQ2yHUj-0Qg-8" style="edgeStyle=orthogonalEdgeStyle;rounded=0;orthogonalLoop=1;jettySize=auto;html=1;exitX=1;exitY=0.5;exitDx=0;exitDy=0;entryX=0.01;entryY=0.12;entryDx=0;entryDy=0;entryPerimeter=0;" parent="WIyWlLk6GJQsqaUBKTNV-1" source="tD3lOuw6bgQ2yHUj-0Qg-1" target="tD3lOuw6bgQ2yHUj-0Qg-4" edge="1">
          <mxGeometry relative="1" as="geometry" />
        </mxCell>
        <mxCell id="tD3lOuw6bgQ2yHUj-0Qg-39" value="1..*" style="edgeLabel;html=1;align=center;verticalAlign=middle;resizable=0;points=[];" parent="tD3lOuw6bgQ2yHUj-0Qg-8" vertex="1" connectable="0">
          <mxGeometry x="0.625" y="1" relative="1" as="geometry">
            <mxPoint as="offset" />
          </mxGeometry>
        </mxCell>
        <mxCell id="tD3lOuw6bgQ2yHUj-0Qg-10" value="GestorSismografo" style="swimlane;fontStyle=1;align=center;verticalAlign=top;childLayout=stackLayout;horizontal=1;startSize=26;horizontalStack=0;resizeParent=1;resizeParentMax=0;resizeLast=0;collapsible=1;marginBottom=0;whiteSpace=wrap;html=1;" parent="WIyWlLk6GJQsqaUBKTNV-1" vertex="1">
          <mxGeometry x="320" y="350" width="160" height="80" as="geometry" />
        </mxCell>
        <mxCell id="tD3lOuw6bgQ2yHUj-0Qg-12" value="" style="line;strokeWidth=1;fillColor=none;align=left;verticalAlign=middle;spacingTop=-1;spacingLeft=3;spacingRight=3;rotatable=0;labelPosition=right;points=[];portConstraint=eastwest;strokeColor=inherit;" parent="tD3lOuw6bgQ2yHUj-0Qg-10" vertex="1">
          <mxGeometry y="26" width="160" height="54" as="geometry" />
        </mxCell>
        <mxCell id="tD3lOuw6bgQ2yHUj-0Qg-15" value="InterfazSismografo" style="swimlane;fontStyle=1;align=center;verticalAlign=top;childLayout=stackLayout;horizontal=1;startSize=26;horizontalStack=0;resizeParent=1;resizeParentMax=0;resizeLast=0;collapsible=1;marginBottom=0;whiteSpace=wrap;html=1;" parent="WIyWlLk6GJQsqaUBKTNV-1" vertex="1">
          <mxGeometry x="60" y="348" width="160" height="70" as="geometry" />
        </mxCell>
        <mxCell id="tD3lOuw6bgQ2yHUj-0Qg-17" value="" style="line;strokeWidth=1;fillColor=none;align=left;verticalAlign=middle;spacingTop=-1;spacingLeft=3;spacingRight=3;rotatable=0;labelPosition=right;points=[];portConstraint=eastwest;strokeColor=inherit;" parent="tD3lOuw6bgQ2yHUj-0Qg-15" vertex="1">
          <mxGeometry y="26" width="160" height="44" as="geometry" />
        </mxCell>
        <mxCell id="tD3lOuw6bgQ2yHUj-0Qg-19" value="MuestraSismica" style="swimlane;fontStyle=1;align=center;verticalAlign=top;childLayout=stackLayout;horizontal=1;startSize=26;horizontalStack=0;resizeParent=1;resizeParentMax=0;resizeLast=0;collapsible=1;marginBottom=0;whiteSpace=wrap;html=1;" parent="WIyWlLk6GJQsqaUBKTNV-1" vertex="1">
          <mxGeometry x="660" y="120" width="160" height="110" as="geometry" />
        </mxCell>
        <mxCell id="tD3lOuw6bgQ2yHUj-0Qg-20" value="- fechaHoraMuestra" style="text;strokeColor=none;fillColor=none;align=left;verticalAlign=top;spacingLeft=4;spacingRight=4;overflow=hidden;rotatable=0;points=[[0,0.5],[1,0.5]];portConstraint=eastwest;whiteSpace=wrap;html=1;" parent="tD3lOuw6bgQ2yHUj-0Qg-19" vertex="1">
          <mxGeometry y="26" width="160" height="26" as="geometry" />
        </mxCell>
        <mxCell id="tD3lOuw6bgQ2yHUj-0Qg-21" value="" style="line;strokeWidth=1;fillColor=none;align=left;verticalAlign=middle;spacingTop=-1;spacingLeft=3;spacingRight=3;rotatable=0;labelPosition=right;points=[];portConstraint=eastwest;strokeColor=inherit;" parent="tD3lOuw6bgQ2yHUj-0Qg-19" vertex="1">
          <mxGeometry y="52" width="160" height="8" as="geometry" />
        </mxCell>
        <mxCell id="tD3lOuw6bgQ2yHUj-0Qg-22" value="+ crearDetalleMuestra():&lt;div&gt;+ getDatos():&lt;/div&gt;&lt;div&gt;+ new():&lt;/div&gt;" style="text;strokeColor=none;fillColor=none;align=left;verticalAlign=top;spacingLeft=4;spacingRight=4;overflow=hidden;rotatable=0;points=[[0,0.5],[1,0.5]];portConstraint=eastwest;whiteSpace=wrap;html=1;" parent="tD3lOuw6bgQ2yHUj-0Qg-19" vertex="1">
          <mxGeometry y="60" width="160" height="50" as="geometry" />
        </mxCell>
        <mxCell id="tD3lOuw6bgQ2yHUj-0Qg-24" value="" style="endArrow=open;html=1;endSize=12;startArrow=diamondThin;startSize=14;startFill=0;edgeStyle=orthogonalEdgeStyle;rounded=0;exitX=0.995;exitY=0.1;exitDx=0;exitDy=0;exitPerimeter=0;entryX=0;entryY=0;entryDx=0;entryDy=0;" parent="WIyWlLk6GJQsqaUBKTNV-1" source="tD3lOuw6bgQ2yHUj-0Qg-4" target="tD3lOuw6bgQ2yHUj-0Qg-19" edge="1">
          <mxGeometry relative="1" as="geometry">
            <mxPoint x="580" y="280" as="sourcePoint" />
            <mxPoint x="740" y="280" as="targetPoint" />
          </mxGeometry>
        </mxCell>
        <mxCell id="tD3lOuw6bgQ2yHUj-0Qg-26" value="1..*" style="edgeLabel;resizable=0;html=1;align=right;verticalAlign=top;" parent="tD3lOuw6bgQ2yHUj-0Qg-24" connectable="0" vertex="1">
          <mxGeometry x="1" relative="1" as="geometry" />
        </mxCell>
        <mxCell id="tD3lOuw6bgQ2yHUj-0Qg-36" style="edgeStyle=orthogonalEdgeStyle;rounded=0;orthogonalLoop=1;jettySize=auto;html=1;exitX=0.5;exitY=0;exitDx=0;exitDy=0;" parent="WIyWlLk6GJQsqaUBKTNV-1" source="tD3lOuw6bgQ2yHUj-0Qg-27" target="tD3lOuw6bgQ2yHUj-0Qg-35" edge="1">
          <mxGeometry relative="1" as="geometry" />
        </mxCell>
        <mxCell id="tD3lOuw6bgQ2yHUj-0Qg-37" value="1" style="edgeLabel;html=1;align=center;verticalAlign=middle;resizable=0;points=[];" parent="tD3lOuw6bgQ2yHUj-0Qg-36" vertex="1" connectable="0">
          <mxGeometry x="0.7033" relative="1" as="geometry">
            <mxPoint as="offset" />
          </mxGeometry>
        </mxCell>
        <mxCell id="tD3lOuw6bgQ2yHUj-0Qg-27" value="ModeloSismografo" style="swimlane;fontStyle=1;align=center;verticalAlign=top;childLayout=stackLayout;horizontal=1;startSize=26;horizontalStack=0;resizeParent=1;resizeParentMax=0;resizeLast=0;collapsible=1;marginBottom=0;whiteSpace=wrap;html=1;" parent="WIyWlLk6GJQsqaUBKTNV-1" vertex="1">
          <mxGeometry x="120" y="-90" width="160" height="120" as="geometry" />
        </mxCell>
        <mxCell id="tD3lOuw6bgQ2yHUj-0Qg-28" value="- caracterisitcas&lt;div&gt;- nombreModelo&lt;/div&gt;" style="text;strokeColor=none;fillColor=none;align=left;verticalAlign=top;spacingLeft=4;spacingRight=4;overflow=hidden;rotatable=0;points=[[0,0.5],[1,0.5]];portConstraint=eastwest;whiteSpace=wrap;html=1;" parent="tD3lOuw6bgQ2yHUj-0Qg-27" vertex="1">
          <mxGeometry y="26" width="160" height="44" as="geometry" />
        </mxCell>
        <mxCell id="tD3lOuw6bgQ2yHUj-0Qg-29" value="" style="line;strokeWidth=1;fillColor=none;align=left;verticalAlign=middle;spacingTop=-1;spacingLeft=3;spacingRight=3;rotatable=0;labelPosition=right;points=[];portConstraint=eastwest;strokeColor=inherit;" parent="tD3lOuw6bgQ2yHUj-0Qg-27" vertex="1">
          <mxGeometry y="70" width="160" height="10" as="geometry" />
        </mxCell>
        <mxCell id="tD3lOuw6bgQ2yHUj-0Qg-30" value="+ getFrabricante():&lt;div&gt;+ getNombreModelo():&lt;/div&gt;" style="text;strokeColor=none;fillColor=none;align=left;verticalAlign=top;spacingLeft=4;spacingRight=4;overflow=hidden;rotatable=0;points=[[0,0.5],[1,0.5]];portConstraint=eastwest;whiteSpace=wrap;html=1;" parent="tD3lOuw6bgQ2yHUj-0Qg-27" vertex="1">
          <mxGeometry y="80" width="160" height="40" as="geometry" />
        </mxCell>
        <mxCell id="tD3lOuw6bgQ2yHUj-0Qg-31" style="edgeStyle=orthogonalEdgeStyle;rounded=0;orthogonalLoop=1;jettySize=auto;html=1;exitX=0.5;exitY=0;exitDx=0;exitDy=0;entryX=0.525;entryY=1.025;entryDx=0;entryDy=0;entryPerimeter=0;" parent="WIyWlLk6GJQsqaUBKTNV-1" source="tD3lOuw6bgQ2yHUj-0Qg-0" target="tD3lOuw6bgQ2yHUj-0Qg-30" edge="1">
          <mxGeometry relative="1" as="geometry" />
        </mxCell>
        <mxCell id="tD3lOuw6bgQ2yHUj-0Qg-38" value="1" style="edgeLabel;html=1;align=center;verticalAlign=middle;resizable=0;points=[];" parent="tD3lOuw6bgQ2yHUj-0Qg-31" vertex="1" connectable="0">
          <mxGeometry x="0.25" y="1" relative="1" as="geometry">
            <mxPoint as="offset" />
          </mxGeometry>
        </mxCell>
        <mxCell id="tD3lOuw6bgQ2yHUj-0Qg-32" value="Fabricante" style="swimlane;fontStyle=1;align=center;verticalAlign=top;childLayout=stackLayout;horizontal=1;startSize=26;horizontalStack=0;resizeParent=1;resizeParentMax=0;resizeLast=0;collapsible=1;marginBottom=0;whiteSpace=wrap;html=1;" parent="WIyWlLk6GJQsqaUBKTNV-1" vertex="1">
          <mxGeometry x="120" y="-250" width="160" height="104" as="geometry" />
        </mxCell>
        <mxCell id="tD3lOuw6bgQ2yHUj-0Qg-33" value="- nombre&lt;div&gt;- razonSocial&lt;/div&gt;" style="text;strokeColor=none;fillColor=none;align=left;verticalAlign=top;spacingLeft=4;spacingRight=4;overflow=hidden;rotatable=0;points=[[0,0.5],[1,0.5]];portConstraint=eastwest;whiteSpace=wrap;html=1;" parent="tD3lOuw6bgQ2yHUj-0Qg-32" vertex="1">
          <mxGeometry y="26" width="160" height="44" as="geometry" />
        </mxCell>
        <mxCell id="tD3lOuw6bgQ2yHUj-0Qg-34" value="" style="line;strokeWidth=1;fillColor=none;align=left;verticalAlign=middle;spacingTop=-1;spacingLeft=3;spacingRight=3;rotatable=0;labelPosition=right;points=[];portConstraint=eastwest;strokeColor=inherit;" parent="tD3lOuw6bgQ2yHUj-0Qg-32" vertex="1">
          <mxGeometry y="70" width="160" height="8" as="geometry" />
        </mxCell>
        <mxCell id="tD3lOuw6bgQ2yHUj-0Qg-35" value="+ getNombreFabricante()" style="text;strokeColor=none;fillColor=none;align=left;verticalAlign=top;spacingLeft=4;spacingRight=4;overflow=hidden;rotatable=0;points=[[0,0.5],[1,0.5]];portConstraint=eastwest;whiteSpace=wrap;html=1;" parent="tD3lOuw6bgQ2yHUj-0Qg-32" vertex="1">
          <mxGeometry y="78" width="160" height="26" as="geometry" />
        </mxCell>
        <mxCell id="tD3lOuw6bgQ2yHUj-0Qg-40" value="EstacionSismologica" style="swimlane;fontStyle=1;align=center;verticalAlign=top;childLayout=stackLayout;horizontal=1;startSize=26;horizontalStack=0;resizeParent=1;resizeParentMax=0;resizeLast=0;collapsible=1;marginBottom=0;whiteSpace=wrap;html=1;" parent="WIyWlLk6GJQsqaUBKTNV-1" vertex="1">
          <mxGeometry x="-140" y="210" width="160" height="80" as="geometry" />
        </mxCell>
        <mxCell id="tD3lOuw6bgQ2yHUj-0Qg-42" value="" style="line;strokeWidth=1;fillColor=none;align=left;verticalAlign=middle;spacingTop=-1;spacingLeft=3;spacingRight=3;rotatable=0;labelPosition=right;points=[];portConstraint=eastwest;strokeColor=inherit;" parent="tD3lOuw6bgQ2yHUj-0Qg-40" vertex="1">
          <mxGeometry y="26" width="160" height="54" as="geometry" />
        </mxCell>
        <mxCell id="tD3lOuw6bgQ2yHUj-0Qg-44" style="edgeStyle=orthogonalEdgeStyle;rounded=0;orthogonalLoop=1;jettySize=auto;html=1;exitX=0;exitY=0.5;exitDx=0;exitDy=0;entryX=1;entryY=0.25;entryDx=0;entryDy=0;" parent="WIyWlLk6GJQsqaUBKTNV-1" source="tD3lOuw6bgQ2yHUj-0Qg-3" target="tD3lOuw6bgQ2yHUj-0Qg-40" edge="1">
          <mxGeometry relative="1" as="geometry" />
        </mxCell>
        <mxCell id="tD3lOuw6bgQ2yHUj-0Qg-45" value="1" style="edgeLabel;html=1;align=center;verticalAlign=middle;resizable=0;points=[];" parent="tD3lOuw6bgQ2yHUj-0Qg-44" vertex="1" connectable="0">
          <mxGeometry x="0.6122" y="1" relative="1" as="geometry">
            <mxPoint as="offset" />
          </mxGeometry>
        </mxCell>
        <mxCell id="tD3lOuw6bgQ2yHUj-0Qg-46" value="DetallMuestraSismica" style="swimlane;fontStyle=1;align=center;verticalAlign=top;childLayout=stackLayout;horizontal=1;startSize=26;horizontalStack=0;resizeParent=1;resizeParentMax=0;resizeLast=0;collapsible=1;marginBottom=0;whiteSpace=wrap;html=1;" parent="WIyWlLk6GJQsqaUBKTNV-1" vertex="1">
          <mxGeometry x="740" y="340" width="160" height="86" as="geometry" />
        </mxCell>
        <mxCell id="tD3lOuw6bgQ2yHUj-0Qg-47" value="+ field: type" style="text;strokeColor=none;fillColor=none;align=left;verticalAlign=top;spacingLeft=4;spacingRight=4;overflow=hidden;rotatable=0;points=[[0,0.5],[1,0.5]];portConstraint=eastwest;whiteSpace=wrap;html=1;" parent="tD3lOuw6bgQ2yHUj-0Qg-46" vertex="1">
          <mxGeometry y="26" width="160" height="26" as="geometry" />
        </mxCell>
        <mxCell id="tD3lOuw6bgQ2yHUj-0Qg-48" value="" style="line;strokeWidth=1;fillColor=none;align=left;verticalAlign=middle;spacingTop=-1;spacingLeft=3;spacingRight=3;rotatable=0;labelPosition=right;points=[];portConstraint=eastwest;strokeColor=inherit;" parent="tD3lOuw6bgQ2yHUj-0Qg-46" vertex="1">
          <mxGeometry y="52" width="160" height="8" as="geometry" />
        </mxCell>
        <mxCell id="tD3lOuw6bgQ2yHUj-0Qg-49" value="+ method(type): type" style="text;strokeColor=none;fillColor=none;align=left;verticalAlign=top;spacingLeft=4;spacingRight=4;overflow=hidden;rotatable=0;points=[[0,0.5],[1,0.5]];portConstraint=eastwest;whiteSpace=wrap;html=1;" parent="tD3lOuw6bgQ2yHUj-0Qg-46" vertex="1">
          <mxGeometry y="60" width="160" height="26" as="geometry" />
        </mxCell>
        <mxCell id="tD3lOuw6bgQ2yHUj-0Qg-50" value="Relation" style="endArrow=open;html=1;endSize=12;startArrow=diamondThin;startSize=14;startFill=0;edgeStyle=orthogonalEdgeStyle;rounded=0;exitX=1;exitY=0.5;exitDx=0;exitDy=0;entryX=0.25;entryY=0;entryDx=0;entryDy=0;" parent="WIyWlLk6GJQsqaUBKTNV-1" source="tD3lOuw6bgQ2yHUj-0Qg-22" target="tD3lOuw6bgQ2yHUj-0Qg-46" edge="1">
          <mxGeometry relative="1" as="geometry">
            <mxPoint x="330" y="280" as="sourcePoint" />
            <mxPoint x="490" y="280" as="targetPoint" />
            <Array as="points">
              <mxPoint x="870" y="205" />
              <mxPoint x="870" y="285" />
              <mxPoint x="780" y="285" />
            </Array>
          </mxGeometry>
        </mxCell>
        <mxCell id="tD3lOuw6bgQ2yHUj-0Qg-51" value="0..n" style="edgeLabel;resizable=0;html=1;align=left;verticalAlign=top;" parent="tD3lOuw6bgQ2yHUj-0Qg-50" connectable="0" vertex="1">
          <mxGeometry x="-1" relative="1" as="geometry" />
        </mxCell>
        <mxCell id="tD3lOuw6bgQ2yHUj-0Qg-53" value="TipoDeDato" style="swimlane;fontStyle=1;align=center;verticalAlign=top;childLayout=stackLayout;horizontal=1;startSize=26;horizontalStack=0;resizeParent=1;resizeParentMax=0;resizeLast=0;collapsible=1;marginBottom=0;whiteSpace=wrap;html=1;" parent="WIyWlLk6GJQsqaUBKTNV-1" vertex="1">
          <mxGeometry x="530" y="347" width="160" height="86" as="geometry" />
        </mxCell>
        <mxCell id="tD3lOuw6bgQ2yHUj-0Qg-54" value="+ field: type" style="text;strokeColor=none;fillColor=none;align=left;verticalAlign=top;spacingLeft=4;spacingRight=4;overflow=hidden;rotatable=0;points=[[0,0.5],[1,0.5]];portConstraint=eastwest;whiteSpace=wrap;html=1;" parent="tD3lOuw6bgQ2yHUj-0Qg-53" vertex="1">
          <mxGeometry y="26" width="160" height="26" as="geometry" />
        </mxCell>
        <mxCell id="tD3lOuw6bgQ2yHUj-0Qg-55" value="" style="line;strokeWidth=1;fillColor=none;align=left;verticalAlign=middle;spacingTop=-1;spacingLeft=3;spacingRight=3;rotatable=0;labelPosition=right;points=[];portConstraint=eastwest;strokeColor=inherit;" parent="tD3lOuw6bgQ2yHUj-0Qg-53" vertex="1">
          <mxGeometry y="52" width="160" height="8" as="geometry" />
        </mxCell>
        <mxCell id="tD3lOuw6bgQ2yHUj-0Qg-56" value="+ method(type): type" style="text;strokeColor=none;fillColor=none;align=left;verticalAlign=top;spacingLeft=4;spacingRight=4;overflow=hidden;rotatable=0;points=[[0,0.5],[1,0.5]];portConstraint=eastwest;whiteSpace=wrap;html=1;" parent="tD3lOuw6bgQ2yHUj-0Qg-53" vertex="1">
          <mxGeometry y="60" width="160" height="26" as="geometry" />
        </mxCell>
        <mxCell id="tD3lOuw6bgQ2yHUj-0Qg-57" style="edgeStyle=orthogonalEdgeStyle;rounded=0;orthogonalLoop=1;jettySize=auto;html=1;exitX=0;exitY=0.25;exitDx=0;exitDy=0;entryX=1.013;entryY=0.151;entryDx=0;entryDy=0;entryPerimeter=0;" parent="WIyWlLk6GJQsqaUBKTNV-1" source="tD3lOuw6bgQ2yHUj-0Qg-46" target="tD3lOuw6bgQ2yHUj-0Qg-53" edge="1">
          <mxGeometry relative="1" as="geometry" />
        </mxCell>
        <mxCell id="tD3lOuw6bgQ2yHUj-0Qg-59" value="Estado" style="swimlane;fontStyle=1;align=center;verticalAlign=top;childLayout=stackLayout;horizontal=1;startSize=26;horizontalStack=0;resizeParent=1;resizeParentMax=0;resizeLast=0;collapsible=1;marginBottom=0;whiteSpace=wrap;html=1;" parent="WIyWlLk6GJQsqaUBKTNV-1" vertex="1">
          <mxGeometry x="470" y="-70" width="160" height="86" as="geometry" />
        </mxCell>
        <mxCell id="tD3lOuw6bgQ2yHUj-0Qg-60" value="+ field: type" style="text;strokeColor=none;fillColor=none;align=left;verticalAlign=top;spacingLeft=4;spacingRight=4;overflow=hidden;rotatable=0;points=[[0,0.5],[1,0.5]];portConstraint=eastwest;whiteSpace=wrap;html=1;" parent="tD3lOuw6bgQ2yHUj-0Qg-59" vertex="1">
          <mxGeometry y="26" width="160" height="26" as="geometry" />
        </mxCell>
        <mxCell id="tD3lOuw6bgQ2yHUj-0Qg-61" value="" style="line;strokeWidth=1;fillColor=none;align=left;verticalAlign=middle;spacingTop=-1;spacingLeft=3;spacingRight=3;rotatable=0;labelPosition=right;points=[];portConstraint=eastwest;strokeColor=inherit;" parent="tD3lOuw6bgQ2yHUj-0Qg-59" vertex="1">
          <mxGeometry y="52" width="160" height="8" as="geometry" />
        </mxCell>
        <mxCell id="tD3lOuw6bgQ2yHUj-0Qg-62" value="+ method(type): type" style="text;strokeColor=none;fillColor=none;align=left;verticalAlign=top;spacingLeft=4;spacingRight=4;overflow=hidden;rotatable=0;points=[[0,0.5],[1,0.5]];portConstraint=eastwest;whiteSpace=wrap;html=1;" parent="tD3lOuw6bgQ2yHUj-0Qg-59" vertex="1">
          <mxGeometry y="60" width="160" height="26" as="geometry" />
        </mxCell>
        <mxCell id="tD3lOuw6bgQ2yHUj-0Qg-65" style="edgeStyle=orthogonalEdgeStyle;rounded=0;orthogonalLoop=1;jettySize=auto;html=1;exitX=0.75;exitY=0;exitDx=0;exitDy=0;entryX=0.456;entryY=1;entryDx=0;entryDy=0;entryPerimeter=0;" parent="WIyWlLk6GJQsqaUBKTNV-1" source="tD3lOuw6bgQ2yHUj-0Qg-4" target="tD3lOuw6bgQ2yHUj-0Qg-62" edge="1">
          <mxGeometry relative="1" as="geometry" />
        </mxCell>
        <mxCell id="tD3lOuw6bgQ2yHUj-0Qg-66" value="1" style="edgeLabel;html=1;align=center;verticalAlign=middle;resizable=0;points=[];" parent="tD3lOuw6bgQ2yHUj-0Qg-65" vertex="1" connectable="0">
          <mxGeometry x="0.4713" y="3" relative="1" as="geometry">
            <mxPoint as="offset" />
          </mxGeometry>
        </mxCell>
      </root>
    </mxGraphModel>
  </diagram>
</mxfile>
